<mxfile host="Electron" modified="2024-03-26T11:07:12.348Z" agent="Mozilla/5.0 (Windows NT 10.0; Win64; x64) AppleWebKit/537.36 (KHTML, like Gecko) draw.io/24.1.0 Chrome/120.0.6099.109 Electron/28.1.0 Safari/537.36" etag="k_SogA5ueGXP-jJTZBx0" version="24.1.0" type="device">
  <diagram name="Страница — 1" id="q1IAY-B4qqAMLcfFCoJ3">
    <mxGraphModel dx="1400" dy="839" grid="1" gridSize="10" guides="1" tooltips="1" connect="1" arrows="1" fold="1" page="1" pageScale="1" pageWidth="827" pageHeight="1169" math="0" shadow="0">
      <root>
        <mxCell id="0" />
        <mxCell id="1" parent="0" />
        <mxCell id="TzxpcZmJhs_pAKCIsKCq-67" value="Доставка товаров" style="swimlane;html=1;childLayout=stackLayout;startSize=20;rounded=0;shadow=0;comic=0;labelBackgroundColor=none;strokeWidth=1;fontFamily=Verdana;fontSize=12;align=center;" parent="1" vertex="1">
          <mxGeometry x="40" y="20" width="1250" height="990" as="geometry" />
        </mxCell>
        <mxCell id="TzxpcZmJhs_pAKCIsKCq-68" value="Клиент" style="swimlane;html=1;startSize=20;" parent="TzxpcZmJhs_pAKCIsKCq-67" vertex="1">
          <mxGeometry y="20" width="250" height="970" as="geometry" />
        </mxCell>
        <mxCell id="JCybk9MPAl80jpgAVRps-1" value="" style="ellipse;fillColor=strokeColor;html=1;" parent="TzxpcZmJhs_pAKCIsKCq-68" vertex="1">
          <mxGeometry x="110" y="30" width="30" height="30" as="geometry" />
        </mxCell>
        <mxCell id="JCybk9MPAl80jpgAVRps-2" value="Ввод данных (аутенификация)" style="html=1;align=center;verticalAlign=top;rounded=1;absoluteArcSize=1;arcSize=10;dashed=0;whiteSpace=wrap;" parent="TzxpcZmJhs_pAKCIsKCq-68" vertex="1">
          <mxGeometry x="55" y="90" width="140" height="40" as="geometry" />
        </mxCell>
        <mxCell id="JCybk9MPAl80jpgAVRps-10" value="" style="html=1;verticalAlign=bottom;endArrow=block;curved=0;rounded=0;exitX=0.5;exitY=1;exitDx=0;exitDy=0;" parent="TzxpcZmJhs_pAKCIsKCq-68" source="JCybk9MPAl80jpgAVRps-1" target="JCybk9MPAl80jpgAVRps-2" edge="1">
          <mxGeometry width="80" relative="1" as="geometry">
            <mxPoint x="170" y="160" as="sourcePoint" />
            <mxPoint x="160" y="110" as="targetPoint" />
          </mxGeometry>
        </mxCell>
        <mxCell id="JCybk9MPAl80jpgAVRps-12" value="Выбор товара" style="html=1;align=center;verticalAlign=top;rounded=1;absoluteArcSize=1;arcSize=10;dashed=0;whiteSpace=wrap;" parent="TzxpcZmJhs_pAKCIsKCq-68" vertex="1">
          <mxGeometry x="55" y="290" width="140" height="40" as="geometry" />
        </mxCell>
        <mxCell id="TzxpcZmJhs_pAKCIsKCq-121" style="edgeStyle=orthogonalEdgeStyle;rounded=0;orthogonalLoop=1;jettySize=auto;html=1;exitX=0.5;exitY=1;exitDx=0;exitDy=0;entryX=0.5;entryY=0;entryDx=0;entryDy=0;" parent="TzxpcZmJhs_pAKCIsKCq-68" source="TzxpcZmJhs_pAKCIsKCq-4" target="TzxpcZmJhs_pAKCIsKCq-114" edge="1">
          <mxGeometry relative="1" as="geometry" />
        </mxCell>
        <mxCell id="TzxpcZmJhs_pAKCIsKCq-4" value="Оплата счета" style="html=1;align=center;verticalAlign=top;rounded=1;absoluteArcSize=1;arcSize=10;dashed=0;whiteSpace=wrap;" parent="TzxpcZmJhs_pAKCIsKCq-68" vertex="1">
          <mxGeometry x="55" y="580" width="140" height="40" as="geometry" />
        </mxCell>
        <mxCell id="TzxpcZmJhs_pAKCIsKCq-101" style="edgeStyle=orthogonalEdgeStyle;rounded=0;orthogonalLoop=1;jettySize=auto;html=1;exitX=0.5;exitY=1;exitDx=0;exitDy=0;" parent="TzxpcZmJhs_pAKCIsKCq-68" source="TzxpcZmJhs_pAKCIsKCq-94" target="TzxpcZmJhs_pAKCIsKCq-95" edge="1">
          <mxGeometry relative="1" as="geometry" />
        </mxCell>
        <mxCell id="TzxpcZmJhs_pAKCIsKCq-94" value="Получиение заказа" style="html=1;align=center;verticalAlign=top;rounded=1;absoluteArcSize=1;arcSize=10;dashed=0;whiteSpace=wrap;" parent="TzxpcZmJhs_pAKCIsKCq-68" vertex="1">
          <mxGeometry x="55" y="830" width="140" height="40" as="geometry" />
        </mxCell>
        <mxCell id="TzxpcZmJhs_pAKCIsKCq-95" value="" style="ellipse;html=1;shape=endState;fillColor=strokeColor;" parent="TzxpcZmJhs_pAKCIsKCq-68" vertex="1">
          <mxGeometry x="110" y="910" width="30" height="30" as="geometry" />
        </mxCell>
        <mxCell id="TzxpcZmJhs_pAKCIsKCq-96" value="" style="html=1;points=[];perimeter=orthogonalPerimeter;fillColor=strokeColor;direction=south;" parent="TzxpcZmJhs_pAKCIsKCq-68" vertex="1">
          <mxGeometry x="85" y="780" width="80" height="5" as="geometry" />
        </mxCell>
        <mxCell id="TzxpcZmJhs_pAKCIsKCq-100" value="" style="html=1;verticalAlign=bottom;endArrow=block;curved=0;rounded=0;exitX=0.5;exitY=1;exitDx=0;exitDy=0;entryX=0.498;entryY=0;entryDx=0;entryDy=0;entryPerimeter=0;" parent="TzxpcZmJhs_pAKCIsKCq-68" target="TzxpcZmJhs_pAKCIsKCq-94" edge="1">
          <mxGeometry width="80" relative="1" as="geometry">
            <mxPoint x="124.72" y="785" as="sourcePoint" />
            <mxPoint x="124.72" y="825" as="targetPoint" />
          </mxGeometry>
        </mxCell>
        <mxCell id="TzxpcZmJhs_pAKCIsKCq-114" value="" style="rhombus;" parent="TzxpcZmJhs_pAKCIsKCq-68" vertex="1">
          <mxGeometry x="100" y="650" width="50" height="50" as="geometry" />
        </mxCell>
        <mxCell id="TzxpcZmJhs_pAKCIsKCq-69" value="Система авторизацияя" style="swimlane;html=1;startSize=20;" parent="TzxpcZmJhs_pAKCIsKCq-67" vertex="1">
          <mxGeometry x="250" y="20" width="250" height="970" as="geometry" />
        </mxCell>
        <mxCell id="TzxpcZmJhs_pAKCIsKCq-78" style="edgeStyle=orthogonalEdgeStyle;rounded=0;orthogonalLoop=1;jettySize=auto;html=1;exitX=0.5;exitY=1;exitDx=0;exitDy=0;" parent="TzxpcZmJhs_pAKCIsKCq-69" source="JCybk9MPAl80jpgAVRps-3" target="JCybk9MPAl80jpgAVRps-4" edge="1">
          <mxGeometry relative="1" as="geometry" />
        </mxCell>
        <mxCell id="JCybk9MPAl80jpgAVRps-3" value="Проверка" style="html=1;align=center;verticalAlign=top;rounded=1;absoluteArcSize=1;arcSize=10;dashed=0;whiteSpace=wrap;" parent="TzxpcZmJhs_pAKCIsKCq-69" vertex="1">
          <mxGeometry x="55" y="90" width="140" height="40" as="geometry" />
        </mxCell>
        <mxCell id="JCybk9MPAl80jpgAVRps-5" value="Авторизация" style="html=1;align=center;verticalAlign=top;rounded=1;absoluteArcSize=1;arcSize=10;dashed=0;whiteSpace=wrap;" parent="TzxpcZmJhs_pAKCIsKCq-69" vertex="1">
          <mxGeometry x="55" y="240" width="140" height="40" as="geometry" />
        </mxCell>
        <mxCell id="JCybk9MPAl80jpgAVRps-4" value="" style="rhombus;" parent="TzxpcZmJhs_pAKCIsKCq-69" vertex="1">
          <mxGeometry x="100" y="160" width="50" height="50" as="geometry" />
        </mxCell>
        <mxCell id="TzxpcZmJhs_pAKCIsKCq-79" value="[200]" style="html=1;verticalAlign=bottom;endArrow=block;curved=0;rounded=0;exitX=0.5;exitY=1;exitDx=0;exitDy=0;" parent="TzxpcZmJhs_pAKCIsKCq-69" source="JCybk9MPAl80jpgAVRps-4" target="JCybk9MPAl80jpgAVRps-5" edge="1">
          <mxGeometry width="80" relative="1" as="geometry">
            <mxPoint x="120" y="220" as="sourcePoint" />
            <mxPoint x="200" y="220" as="targetPoint" />
          </mxGeometry>
        </mxCell>
        <mxCell id="TzxpcZmJhs_pAKCIsKCq-77" style="edgeStyle=orthogonalEdgeStyle;rounded=0;orthogonalLoop=1;jettySize=auto;html=1;exitX=1;exitY=0.5;exitDx=0;exitDy=0;entryX=0;entryY=0.5;entryDx=0;entryDy=0;" parent="TzxpcZmJhs_pAKCIsKCq-67" source="JCybk9MPAl80jpgAVRps-2" target="JCybk9MPAl80jpgAVRps-3" edge="1">
          <mxGeometry relative="1" as="geometry" />
        </mxCell>
        <mxCell id="TzxpcZmJhs_pAKCIsKCq-80" value="[401]" style="html=1;verticalAlign=bottom;endArrow=block;curved=0;rounded=0;exitX=0;exitY=0.5;exitDx=0;exitDy=0;entryX=0.5;entryY=1;entryDx=0;entryDy=0;entryPerimeter=0;" parent="TzxpcZmJhs_pAKCIsKCq-67" source="JCybk9MPAl80jpgAVRps-4" target="JCybk9MPAl80jpgAVRps-2" edge="1">
          <mxGeometry width="80" relative="1" as="geometry">
            <mxPoint x="370" y="240" as="sourcePoint" />
            <mxPoint x="450" y="240" as="targetPoint" />
            <Array as="points">
              <mxPoint x="125" y="205" />
            </Array>
          </mxGeometry>
        </mxCell>
        <mxCell id="TzxpcZmJhs_pAKCIsKCq-81" style="edgeStyle=orthogonalEdgeStyle;rounded=0;orthogonalLoop=1;jettySize=auto;html=1;exitX=0;exitY=0.5;exitDx=0;exitDy=0;entryX=0.5;entryY=0;entryDx=0;entryDy=0;" parent="TzxpcZmJhs_pAKCIsKCq-67" source="JCybk9MPAl80jpgAVRps-5" target="JCybk9MPAl80jpgAVRps-12" edge="1">
          <mxGeometry relative="1" as="geometry" />
        </mxCell>
        <mxCell id="TzxpcZmJhs_pAKCIsKCq-82" style="edgeStyle=orthogonalEdgeStyle;rounded=0;orthogonalLoop=1;jettySize=auto;html=1;exitX=1;exitY=0.5;exitDx=0;exitDy=0;" parent="TzxpcZmJhs_pAKCIsKCq-67" source="JCybk9MPAl80jpgAVRps-12" target="JCybk9MPAl80jpgAVRps-13" edge="1">
          <mxGeometry relative="1" as="geometry" />
        </mxCell>
        <mxCell id="TzxpcZmJhs_pAKCIsKCq-70" value="Система управленя заказами" style="swimlane;html=1;startSize=20;" parent="TzxpcZmJhs_pAKCIsKCq-67" vertex="1">
          <mxGeometry x="500" y="20" width="250" height="970" as="geometry" />
        </mxCell>
        <mxCell id="TzxpcZmJhs_pAKCIsKCq-85" style="edgeStyle=orthogonalEdgeStyle;rounded=0;orthogonalLoop=1;jettySize=auto;html=1;exitX=0.5;exitY=1;exitDx=0;exitDy=0;" parent="TzxpcZmJhs_pAKCIsKCq-70" source="JCybk9MPAl80jpgAVRps-13" target="JCybk9MPAl80jpgAVRps-14" edge="1">
          <mxGeometry relative="1" as="geometry" />
        </mxCell>
        <mxCell id="JCybk9MPAl80jpgAVRps-13" value="Формирование корзины" style="html=1;align=center;verticalAlign=top;rounded=1;absoluteArcSize=1;arcSize=10;dashed=0;whiteSpace=wrap;" parent="TzxpcZmJhs_pAKCIsKCq-70" vertex="1">
          <mxGeometry x="55" y="290" width="140" height="40" as="geometry" />
        </mxCell>
        <mxCell id="JCybk9MPAl80jpgAVRps-14" value="Определение наличия товаров" style="html=1;align=center;verticalAlign=top;rounded=1;absoluteArcSize=1;arcSize=10;dashed=0;whiteSpace=wrap;" parent="TzxpcZmJhs_pAKCIsKCq-70" vertex="1">
          <mxGeometry x="55" y="360" width="140" height="40" as="geometry" />
        </mxCell>
        <mxCell id="JCybk9MPAl80jpgAVRps-15" value="" style="rhombus;" parent="TzxpcZmJhs_pAKCIsKCq-70" vertex="1">
          <mxGeometry x="100" y="440" width="50" height="50" as="geometry" />
        </mxCell>
        <mxCell id="JCybk9MPAl80jpgAVRps-22" value="" style="html=1;verticalAlign=bottom;endArrow=block;curved=0;rounded=0;exitX=0.5;exitY=1;exitDx=0;exitDy=0;entryX=0.5;entryY=0;entryDx=0;entryDy=0;" parent="TzxpcZmJhs_pAKCIsKCq-70" source="JCybk9MPAl80jpgAVRps-14" target="JCybk9MPAl80jpgAVRps-15" edge="1">
          <mxGeometry width="80" relative="1" as="geometry">
            <mxPoint x="-195" y="410" as="sourcePoint" />
            <mxPoint x="-115" y="410" as="targetPoint" />
          </mxGeometry>
        </mxCell>
        <mxCell id="TzxpcZmJhs_pAKCIsKCq-1" value="Создание заказа" style="html=1;align=center;verticalAlign=top;rounded=1;absoluteArcSize=1;arcSize=10;dashed=0;whiteSpace=wrap;" parent="TzxpcZmJhs_pAKCIsKCq-70" vertex="1">
          <mxGeometry x="55" y="525" width="140" height="40" as="geometry" />
        </mxCell>
        <mxCell id="TzxpcZmJhs_pAKCIsKCq-2" value="[Есть в наличии]" style="html=1;verticalAlign=bottom;endArrow=block;curved=0;rounded=0;exitX=0.5;exitY=1;exitDx=0;exitDy=0;entryX=0.5;entryY=0;entryDx=0;entryDy=0;" parent="TzxpcZmJhs_pAKCIsKCq-70" source="JCybk9MPAl80jpgAVRps-15" target="TzxpcZmJhs_pAKCIsKCq-1" edge="1">
          <mxGeometry width="80" relative="1" as="geometry">
            <mxPoint x="-185" y="470" as="sourcePoint" />
            <mxPoint x="-105" y="470" as="targetPoint" />
          </mxGeometry>
        </mxCell>
        <mxCell id="TzxpcZmJhs_pAKCIsKCq-87" value="" style="html=1;points=[];perimeter=orthogonalPerimeter;fillColor=strokeColor;direction=south;" parent="TzxpcZmJhs_pAKCIsKCq-70" vertex="1">
          <mxGeometry x="85" y="610" width="80" height="5" as="geometry" />
        </mxCell>
        <mxCell id="TzxpcZmJhs_pAKCIsKCq-89" value="" style="html=1;verticalAlign=bottom;endArrow=block;curved=0;rounded=0;exitX=0.5;exitY=1;exitDx=0;exitDy=0;entryX=0.038;entryY=0.497;entryDx=0;entryDy=0;entryPerimeter=0;" parent="TzxpcZmJhs_pAKCIsKCq-70" source="TzxpcZmJhs_pAKCIsKCq-1" target="TzxpcZmJhs_pAKCIsKCq-87" edge="1">
          <mxGeometry width="80" relative="1" as="geometry">
            <mxPoint x="120" y="590" as="sourcePoint" />
            <mxPoint x="190" y="640" as="targetPoint" />
          </mxGeometry>
        </mxCell>
        <mxCell id="TzxpcZmJhs_pAKCIsKCq-112" value="Отмена заказа" style="html=1;align=center;verticalAlign=top;rounded=1;absoluteArcSize=1;arcSize=10;dashed=0;whiteSpace=wrap;" parent="TzxpcZmJhs_pAKCIsKCq-70" vertex="1">
          <mxGeometry x="55" y="830" width="140" height="40" as="geometry" />
        </mxCell>
        <mxCell id="TzxpcZmJhs_pAKCIsKCq-102" value="Lane 3" style="swimlane;html=1;startSize=20;" parent="TzxpcZmJhs_pAKCIsKCq-67" vertex="1">
          <mxGeometry x="750" y="20" width="250" height="970" as="geometry" />
        </mxCell>
        <mxCell id="TzxpcZmJhs_pAKCIsKCq-122" value="[Не оплачен]" style="html=1;verticalAlign=bottom;endArrow=block;curved=0;rounded=0;exitX=1;exitY=0.5;exitDx=0;exitDy=0;entryX=0;entryY=0.5;entryDx=0;entryDy=0;" parent="TzxpcZmJhs_pAKCIsKCq-67" source="TzxpcZmJhs_pAKCIsKCq-114" target="TzxpcZmJhs_pAKCIsKCq-112" edge="1">
          <mxGeometry width="80" relative="1" as="geometry">
            <mxPoint x="360" y="660" as="sourcePoint" />
            <mxPoint x="440" y="660" as="targetPoint" />
            <Array as="points">
              <mxPoint x="360" y="695" />
              <mxPoint x="360" y="870" />
            </Array>
          </mxGeometry>
        </mxCell>
        <mxCell id="TzxpcZmJhs_pAKCIsKCq-124" style="edgeStyle=orthogonalEdgeStyle;rounded=0;orthogonalLoop=1;jettySize=auto;html=1;exitX=0.5;exitY=1;exitDx=0;exitDy=0;entryX=1;entryY=0.5;entryDx=0;entryDy=0;" parent="TzxpcZmJhs_pAKCIsKCq-67" source="TzxpcZmJhs_pAKCIsKCq-112" target="TzxpcZmJhs_pAKCIsKCq-95" edge="1">
          <mxGeometry relative="1" as="geometry" />
        </mxCell>
        <mxCell id="TzxpcZmJhs_pAKCIsKCq-113" value="[Нет в наличии]" style="html=1;verticalAlign=bottom;endArrow=block;curved=0;rounded=0;exitX=0;exitY=0.5;exitDx=0;exitDy=0;entryX=0.5;entryY=1;entryDx=0;entryDy=0;" parent="TzxpcZmJhs_pAKCIsKCq-67" source="JCybk9MPAl80jpgAVRps-15" target="JCybk9MPAl80jpgAVRps-12" edge="1">
          <mxGeometry width="80" relative="1" as="geometry">
            <mxPoint x="620" y="630" as="sourcePoint" />
            <mxPoint x="700" y="630" as="targetPoint" />
            <Array as="points">
              <mxPoint x="540" y="485" />
              <mxPoint x="125" y="485" />
            </Array>
          </mxGeometry>
        </mxCell>
        <mxCell id="TzxpcZmJhs_pAKCIsKCq-71" value="Платежная система" style="swimlane;html=1;startSize=20;" parent="1" vertex="1">
          <mxGeometry x="790" y="40" width="250" height="970" as="geometry" />
        </mxCell>
        <mxCell id="TzxpcZmJhs_pAKCIsKCq-3" value="Выписка счета" style="html=1;align=center;verticalAlign=top;rounded=1;absoluteArcSize=1;arcSize=10;dashed=0;whiteSpace=wrap;" parent="TzxpcZmJhs_pAKCIsKCq-71" vertex="1">
          <mxGeometry x="55" y="700" width="140" height="40" as="geometry" />
        </mxCell>
        <mxCell id="TzxpcZmJhs_pAKCIsKCq-83" value="Система доставки" style="swimlane;html=1;startSize=20;" parent="1" vertex="1">
          <mxGeometry x="1040" y="40" width="250" height="970" as="geometry" />
        </mxCell>
        <mxCell id="TzxpcZmJhs_pAKCIsKCq-91" value="Организование доставки товара" style="html=1;align=center;verticalAlign=top;rounded=1;absoluteArcSize=1;arcSize=10;dashed=0;whiteSpace=wrap;" parent="TzxpcZmJhs_pAKCIsKCq-83" vertex="1">
          <mxGeometry x="55" y="700" width="140" height="40" as="geometry" />
        </mxCell>
        <mxCell id="TzxpcZmJhs_pAKCIsKCq-90" value="" style="html=1;verticalAlign=bottom;endArrow=block;curved=0;rounded=0;exitX=0.952;exitY=0.811;exitDx=0;exitDy=0;exitPerimeter=0;entryX=0.5;entryY=0;entryDx=0;entryDy=0;" parent="1" source="TzxpcZmJhs_pAKCIsKCq-87" target="TzxpcZmJhs_pAKCIsKCq-3" edge="1">
          <mxGeometry x="0.0001" width="80" relative="1" as="geometry">
            <mxPoint x="639.8" y="655.2049999999999" as="sourcePoint" />
            <mxPoint x="915" y="710" as="targetPoint" />
            <Array as="points">
              <mxPoint x="640" y="710" />
              <mxPoint x="915" y="710" />
            </Array>
            <mxPoint as="offset" />
          </mxGeometry>
        </mxCell>
        <mxCell id="TzxpcZmJhs_pAKCIsKCq-92" value="" style="html=1;verticalAlign=bottom;endArrow=block;curved=0;rounded=0;exitX=0.915;exitY=0.161;exitDx=0;exitDy=0;exitPerimeter=0;entryX=0.5;entryY=0;entryDx=0;entryDy=0;" parent="1" source="TzxpcZmJhs_pAKCIsKCq-87" target="TzxpcZmJhs_pAKCIsKCq-91" edge="1">
          <mxGeometry width="80" relative="1" as="geometry">
            <mxPoint x="730" y="710" as="sourcePoint" />
            <mxPoint x="810" y="710" as="targetPoint" />
            <Array as="points">
              <mxPoint x="692" y="680" />
              <mxPoint x="1165" y="680" />
            </Array>
          </mxGeometry>
        </mxCell>
        <mxCell id="TzxpcZmJhs_pAKCIsKCq-98" style="edgeStyle=orthogonalEdgeStyle;rounded=0;orthogonalLoop=1;jettySize=auto;html=1;exitX=0.5;exitY=1;exitDx=0;exitDy=0;entryX=-0.128;entryY=0.502;entryDx=0;entryDy=0;entryPerimeter=0;" parent="1" source="TzxpcZmJhs_pAKCIsKCq-91" target="TzxpcZmJhs_pAKCIsKCq-96" edge="1">
          <mxGeometry relative="1" as="geometry">
            <mxPoint x="165" y="819" as="targetPoint" />
          </mxGeometry>
        </mxCell>
        <mxCell id="TzxpcZmJhs_pAKCIsKCq-123" style="edgeStyle=orthogonalEdgeStyle;rounded=0;orthogonalLoop=1;jettySize=auto;html=1;exitX=0;exitY=0.5;exitDx=0;exitDy=0;entryX=1;entryY=0.5;entryDx=0;entryDy=0;" parent="1" source="TzxpcZmJhs_pAKCIsKCq-3" target="TzxpcZmJhs_pAKCIsKCq-4" edge="1">
          <mxGeometry relative="1" as="geometry">
            <Array as="points">
              <mxPoint x="470" y="760" />
              <mxPoint x="470" y="640" />
            </Array>
          </mxGeometry>
        </mxCell>
        <mxCell id="TzxpcZmJhs_pAKCIsKCq-120" value="[Оплачен]" style="html=1;verticalAlign=bottom;endArrow=block;curved=0;rounded=0;exitX=0.5;exitY=1;exitDx=0;exitDy=0;entryX=0.75;entryY=1;entryDx=0;entryDy=0;" parent="1" source="TzxpcZmJhs_pAKCIsKCq-114" target="TzxpcZmJhs_pAKCIsKCq-91" edge="1">
          <mxGeometry width="80" relative="1" as="geometry">
            <mxPoint x="220" y="740" as="sourcePoint" />
            <mxPoint x="300" y="740" as="targetPoint" />
            <Array as="points">
              <mxPoint x="165" y="780" />
              <mxPoint x="80" y="780" />
              <mxPoint x="80" y="990" />
              <mxPoint x="1200" y="990" />
            </Array>
          </mxGeometry>
        </mxCell>
      </root>
    </mxGraphModel>
  </diagram>
</mxfile>
